<svg xmlns="http://www.w3.org/2000/svg" width="640" height="640" viewBox="0 0 640 640" role="img" aria-labelledby="title desc">
  <title id="title">Placeholder PayNow QR code</title>
  <desc id="desc">A non-functional placeholder QR image for Terry Fox Run Singapore local testing.</desc>
  <rect width="640" height="640" fill="#fff"/>
  <rect x="22" y="22" width="596" height="596" rx="18" fill="#fff" stroke="#7a1f82" stroke-width="14"/>
  <g fill="#7a1f82">
    <rect x="54" y="54" width="108" height="108"/>
    <rect x="478" y="54" width="108" height="108"/>
    <rect x="54" y="478" width="108" height="108"/>
    <rect x="78" y="78" width="60" height="60" fill="#fff"/>
    <rect x="502" y="78" width="60" height="60" fill="#fff"/>
    <rect x="78" y="502" width="60" height="60" fill="#fff"/>
    <rect x="96" y="96" width="24" height="24"/>
    <rect x="520" y="96" width="24" height="24"/>
    <rect x="96" y="520" width="24" height="24"/>
  </g>
  <g fill="#7a1f82">
    <rect x="202" y="58" width="28" height="28"/><rect x="258" y="58" width="28" height="56"/><rect x="342" y="58" width="56" height="28"/><rect x="426" y="58" width="28" height="84"/>
    <rect x="202" y="114" width="84" height="28"/><rect x="314" y="114" width="28" height="28"/><rect x="370" y="114" width="28" height="56"/>
    <rect x="54" y="202" width="28" height="56"/><rect x="110" y="202" width="56" height="28"/><rect x="194" y="202" width="84" height="28"/><rect x="306" y="194" width="28" height="84"/><rect x="362" y="202" width="56" height="28"/><rect x="474" y="194" width="28" height="84"/><rect x="530" y="202" width="56" height="28"/>
    <rect x="82" y="286" width="84" height="28"/><rect x="222" y="278" width="28" height="84"/><rect x="278" y="306" width="84" height="28"/><rect x="390" y="278" width="28" height="84"/><rect x="446" y="306" width="112" height="28"/>
    <rect x="54" y="390" width="56" height="28"/><rect x="138" y="362" width="28" height="84"/><rect x="194" y="390" width="112" height="28"/><rect x="334" y="362" width="28" height="84"/><rect x="390" y="390" width="56" height="28"/><rect x="502" y="362" width="28" height="84"/><rect x="558" y="390" width="28" height="28"/>
    <rect x="202" y="474" width="28" height="112"/><rect x="258" y="502" width="84" height="28"/><rect x="370" y="474" width="28" height="84"/><rect x="426" y="502" width="56" height="28"/><rect x="530" y="474" width="56" height="28"/>
    <rect x="222" y="558" width="56" height="28"/><rect x="306" y="558" width="28" height="28"/><rect x="390" y="558" width="84" height="28"/><rect x="530" y="558" width="28" height="28"/>
  </g>
  <circle cx="320" cy="320" r="78" fill="#fff"/>
  <text x="320" y="303" text-anchor="middle" font-family="Arial, Helvetica, sans-serif" font-weight="800" font-size="46" fill="#7a1f82">PAY</text>
  <text x="320" y="355" text-anchor="middle" font-family="Arial, Helvetica, sans-serif" font-weight="800" font-size="46" fill="#7a1f82">NOW</text>
</svg>
